<?xml version="1.0" standalone="no"?>
<!DOCTYPE svg PUBLIC "-//W3C//DTD SVG 20010904//EN"
 "http://www.w3.org/TR/2001/REC-SVG-20010904/DTD/svg10.dtd">
<svg version="1.0" xmlns="http://www.w3.org/2000/svg"
 width="430.000000pt" height="430.000000pt" viewBox="0 0 430.000000 430.000000"
 preserveAspectRatio="xMidYMid meet">

<g transform="translate(0.000000,430.000000) scale(0.100000,-0.100000)"
fill="#000000" stroke="none">
<path d="M300 3650 l0 -350 350 0 350 0 0 350 0 350 -350 0 -350 0 0 -350z
m600 0 l0 -250 -250 0 -250 0 0 250 0 250 250 0 250 0 0 -250z"/>
<path d="M500 3650 l0 -150 150 0 150 0 0 150 0 150 -150 0 -150 0 0 -150z"/>
<path d="M1300 3900 l0 -100 -50 0 -50 0 0 50 0 50 -50 0 -50 0 0 -300 0 -300
50 0 50 0 0 -50 0 -50 -200 0 -200 0 0 -50 0 -50 -50 0 -50 0 0 -150 0 -150
50 0 50 0 0 50 0 50 100 0 100 0 0 50 0 50 50 0 50 0 0 -50 0 -50 50 0 50 0 0
-50 0 -50 -50 0 -50 0 0 -50 0 -50 50 0 50 0 0 -50 0 -50 50 0 50 0 0 -150 0
-150 -100 0 -100 0 0 -50 0 -50 -100 0 -100 0 0 50 0 50 50 0 50 0 0 50 0 50
50 0 50 0 0 50 0 50 -50 0 -50 0 0 50 0 50 -50 0 -50 0 0 50 0 50 50 0 50 0 0
50 0 50 -50 0 -50 0 0 -50 0 -50 -50 0 -50 0 0 -50 0 -50 50 0 50 0 0 -50 0
-50 50 0 50 0 0 -50 0 -50 -50 0 -50 0 0 -50 0 -50 -50 0 -50 0 0 100 0 100
-50 0 -50 0 0 100 0 100 -100 0 -100 0 0 -50 0 -50 -50 0 -50 0 0 150 0 150
50 0 50 0 0 -50 0 -50 50 0 50 0 0 50 0 50 -50 0 -50 0 0 100 0 100 50 0 50 0
0 50 0 50 -50 0 -50 0 0 -50 0 -50 -50 0 -50 0 0 -50 0 -50 -50 0 -50 0 0
-300 0 -300 50 0 50 0 0 -50 0 -50 50 0 50 0 0 -50 0 -50 -100 0 -100 0 0 -50
0 -50 100 0 100 0 0 -100 0 -100 50 0 50 0 0 -50 0 -50 50 0 50 0 0 -100 0
-100 50 0 50 0 0 -100 0 -100 -50 0 -50 0 0 -50 0 -50 -50 0 -50 0 0 100 0
100 -50 0 -50 0 0 50 0 50 50 0 50 0 0 50 0 50 -100 0 -100 0 0 -50 0 -50 -50
0 -50 0 0 -50 0 -50 50 0 50 0 0 -50 0 -50 -50 0 -50 0 0 -50 0 -50 100 0 100
0 0 -50 0 -50 -100 0 -100 0 0 -50 0 -50 200 0 200 0 0 100 0 100 50 0 50 0 0
50 0 50 50 0 50 0 0 -50 0 -50 100 0 100 0 0 -50 0 -50 50 0 50 0 0 -50 0 -50
-50 0 -50 0 0 -150 0 -150 50 0 50 0 0 -100 0 -100 -50 0 -50 0 0 -50 0 -50
100 0 100 0 0 -100 0 -100 50 0 50 0 0 50 0 50 50 0 50 0 0 -50 0 -50 50 0 50
0 0 50 0 50 -50 0 -50 0 0 50 0 50 50 0 50 0 0 100 0 100 -50 0 -50 0 0 50 0
50 50 0 50 0 0 50 0 50 -50 0 -50 0 0 50 0 50 50 0 50 0 0 100 0 100 100 0
100 0 0 -50 0 -50 -50 0 -50 0 0 -50 0 -50 50 0 50 0 0 50 0 50 50 0 50 0 0
-50 0 -50 50 0 50 0 0 50 0 50 50 0 50 0 0 50 0 50 -50 0 -50 0 0 100 0 100
100 0 100 0 0 50 0 50 -100 0 -100 0 0 80 0 80 -50 0 -50 0 0 -80 0 -80 50 0
50 0 0 -50 0 -50 -50 0 -50 0 0 -50 0 -50 -150 0 -150 0 0 50 0 50 100 0 100
0 0 50 0 50 -50 0 -50 0 0 100 0 100 -100 0 -100 0 0 50 0 50 50 0 50 0 0 100
0 100 30 0 c29 0 30 1 30 50 0 49 -1 50 -30 50 -29 0 -30 1 -30 50 0 49 1 50
30 50 29 0 30 1 30 50 0 49 -1 50 -30 50 -29 0 -30 1 -30 50 0 49 1 50 30 50
l30 0 0 60 c0 98 38 156 113 175 22 6 27 13 27 36 0 28 2 29 50 29 l50 0 0
100 0 100 -50 0 -50 0 0 -100 0 -100 -100 0 -100 0 0 50 0 50 50 0 50 0 0 50
0 50 -50 0 -50 0 0 50 0 50 100 0 100 0 0 50 0 50 50 0 50 0 0 50 0 50 -50 0
-50 0 0 100 0 100 -50 0 -50 0 0 50 0 50 100 0 100 0 0 100 0 100 50 0 50 0 0
-50 0 -50 50 0 50 0 0 50 0 50 50 0 50 0 0 50 0 50 100 0 100 0 0 -50 0 -50
-50 0 -50 0 0 -50 0 -50 50 0 50 0 0 50 0 50 50 0 50 0 0 -50 0 -50 100 0 100
0 0 -50 0 -50 50 0 50 0 0 -50 0 -50 -50 0 -50 0 0 -100 0 -100 50 0 50 0 0
100 0 100 50 0 50 0 0 -50 0 -50 50 0 50 0 0 -50 0 -50 -50 0 -50 0 0 -100 0
-100 50 0 50 0 0 -50 0 -50 -50 0 -50 0 0 -50 0 -50 50 0 50 0 0 50 0 50 50 0
50 0 0 100 0 100 -50 0 -50 0 0 50 0 50 100 0 100 0 0 -150 0 -150 100 0 100
0 0 -50 0 -50 -150 0 -150 0 0 -100 0 -100 -50 0 -50 0 0 -50 0 -50 -50 0 -50
0 0 -50 0 -50 50 0 50 0 0 50 0 50 50 0 50 0 0 50 0 50 50 0 50 0 0 -100 0
-100 -50 0 -50 0 0 -50 0 -50 -50 0 -50 0 0 -100 0 -100 -50 0 -50 0 0 100 0
100 -50 0 -50 0 0 150 0 150 50 0 50 0 0 50 0 50 -50 0 -50 0 0 200 0 200 -50
0 -50 0 0 -100 0 -100 -50 0 -50 0 0 250 0 250 -50 0 -50 0 0 -200 0 -200 -50
0 -50 0 0 100 0 100 -50 0 -50 0 0 50 0 50 50 0 50 0 0 50 0 50 -50 0 -50 0 0
50 0 50 -150 0 -150 0 0 -50 0 -50 -50 0 -50 0 0 -50 0 -50 50 0 50 0 0 50 0
50 50 0 50 0 0 -100 0 -100 -50 0 -50 0 0 -100 0 -100 50 0 50 0 0 50 0 50
100 0 100 0 0 -100 0 -100 -50 0 -50 0 0 -100 0 -100 -50 0 -50 0 0 100 0 100
-50 0 -50 0 0 -100 0 -100 50 0 c49 0 50 -1 50 -30 l0 -30 100 0 100 0 0 30
c0 29 1 30 50 30 49 0 50 -1 50 -30 l0 -30 63 0 c119 0 169 -47 175 -166 l4
-74 29 0 29 0 0 -100 0 -100 -30 0 c-29 0 -30 -1 -30 -50 0 -49 1 -50 30 -50
29 0 30 -1 30 -50 l0 -50 50 0 50 0 0 -50 0 -50 -80 0 -80 0 0 -63 c0 -42 -6
-75 -19 -100 l-19 -37 149 0 149 0 0 -50 0 -50 -100 0 -100 0 0 -150 0 -150
-50 0 -50 0 0 100 0 100 -50 0 -50 0 0 50 0 50 -50 0 c-49 0 -50 1 -50 30 l0
30 -150 0 -150 0 0 -30 0 -30 150 0 150 0 0 -50 0 -50 50 0 50 0 0 -50 0 -50
-50 0 -50 0 0 -100 0 -100 -50 0 -50 0 0 -50 0 -50 -50 0 -50 0 0 -50 0 -50
-50 0 -50 0 0 -50 0 -50 50 0 50 0 0 50 0 50 100 0 100 0 0 -50 0 -50 50 0 50
0 0 50 0 50 50 0 50 0 0 -50 0 -50 150 0 150 0 0 -100 0 -100 50 0 50 0 0
-100 0 -100 -50 0 -50 0 0 50 0 50 -150 0 -150 0 0 -50 0 -50 150 0 150 0 0
-50 0 -50 50 0 50 0 0 -50 0 -50 100 0 100 0 0 100 0 100 50 0 50 0 0 50 0 50
-100 0 -100 0 0 50 0 50 150 0 150 0 0 -50 0 -50 50 0 50 0 0 -100 0 -100
-100 0 -100 0 0 -50 0 -50 200 0 200 0 0 50 0 50 -50 0 -50 0 0 50 0 50 50 0
50 0 0 50 0 50 50 0 50 0 0 -50 0 -50 100 0 100 0 0 100 0 100 -50 0 -50 0 0
100 0 100 50 0 50 0 0 100 0 100 -100 0 -100 0 0 -50 0 -50 -50 0 -50 0 0 50
0 50 -50 0 -50 0 0 50 0 50 50 0 50 0 0 50 0 50 -50 0 -50 0 0 -50 0 -50 -100
0 -100 0 0 50 0 50 50 0 50 0 0 200 0 200 50 0 50 0 0 -50 0 -50 50 0 50 0 0
-50 0 -50 -50 0 -50 0 0 -50 0 -50 50 0 50 0 0 50 0 50 50 0 50 0 0 -50 0 -50
50 0 50 0 0 -50 0 -50 -50 0 -50 0 0 -50 0 -50 100 0 100 0 0 150 0 150 -100
0 -100 0 0 50 0 50 50 0 50 0 0 50 0 50 50 0 50 0 0 50 0 50 -50 0 -50 0 0
-50 0 -50 -50 0 -50 0 0 -50 0 -50 -50 0 -50 0 0 50 0 50 -50 0 -50 0 0 50 0
50 100 0 100 0 0 50 0 50 50 0 50 0 0 50 0 50 50 0 50 0 0 150 0 150 -50 0
-50 0 0 50 0 50 -50 0 -50 0 0 -50 0 -50 -50 0 -50 0 0 -100 0 -100 -100 0
-100 0 0 100 0 100 -50 0 -50 0 0 50 0 50 50 0 50 0 0 50 0 50 50 0 50 0 0
-50 0 -50 50 0 50 0 0 50 0 50 50 0 50 0 0 100 0 100 50 0 50 0 0 -100 0 -100
50 0 50 0 0 300 0 300 -50 0 -50 0 0 50 0 50 -250 0 -250 0 0 -50 0 -50 -50 0
-50 0 0 50 0 50 -50 0 -50 0 0 150 0 150 -50 0 -50 0 0 -100 0 -100 -50 0 -50
0 0 50 0 50 -50 0 -50 0 0 50 0 50 50 0 50 0 0 50 0 50 -50 0 -50 0 0 50 0 50
50 0 50 0 0 50 0 50 -50 0 -50 0 0 50 0 50 50 0 50 0 0 50 0 50 -50 0 -50 0 0
-50 0 -50 -100 0 -100 0 0 50 0 50 -50 0 -50 0 0 -50 0 -50 -50 0 -50 0 0 50
0 50 -100 0 -100 0 0 -50 0 -50 -50 0 -50 0 0 50 0 50 -200 0 -200 0 0 -100 0
-100 -50 0 -50 0 0 -50 0 -50 50 0 50 0 0 -50 0 -50 -100 0 -100 0 0 150 0
150 -100 0 -100 0 0 50 0 50 -50 0 -50 0 0 -100z m900 -50 l0 -50 -50 0 -50 0
0 -50 0 -50 -50 0 -50 0 0 100 0 100 100 0 100 0 0 -50z m500 0 l0 -50 50 0
50 0 0 -100 0 -100 -50 0 -50 0 0 50 0 50 -100 0 -100 0 0 50 0 50 50 0 50 0
0 50 0 50 50 0 50 0 0 -50z m-1200 -200 l0 -150 50 0 50 0 0 -50 0 -50 50 0
50 0 0 -50 0 -50 -50 0 -50 0 0 -50 0 -50 100 0 100 0 0 -50 0 -50 -100 0
-100 0 0 -50 0 -50 -50 0 -50 0 0 50 0 50 -100 0 -100 0 0 100 0 100 -50 0
-50 0 0 150 0 150 50 0 50 0 0 100 0 100 100 0 100 0 0 -150z m800 -300 l0
-50 -50 0 -50 0 0 50 0 50 50 0 50 0 0 -50z m-1300 -300 l0 -50 -50 0 -50 0 0
50 0 50 50 0 50 0 0 -50z m200 0 l0 -50 -50 0 -50 0 0 50 0 50 50 0 50 0 0
-50z m2500 0 l0 -50 50 0 50 0 0 50 0 50 50 0 50 0 0 -50 0 -50 -50 0 -50 0 0
-50 0 -50 50 0 50 0 0 -50 0 -50 -50 0 -50 0 0 -50 0 -50 -50 0 -50 0 0 -50 0
-50 -100 0 -100 0 0 150 0 150 50 0 50 0 0 50 0 50 -50 0 -50 0 0 50 0 50 100
0 100 0 0 -50z m-2100 -200 l0 -50 -100 0 -100 0 0 -50 0 -50 100 0 100 0 0
-50 0 -50 -50 0 -50 0 0 -50 0 -50 -50 0 -50 0 0 50 0 50 -50 0 -50 0 0 50 0
50 -50 0 -50 0 0 50 0 50 100 0 100 0 0 50 0 50 100 0 100 0 0 -50z m1100
-100 l0 -50 50 0 50 0 0 -50 0 -50 -50 0 -50 0 0 50 0 50 -50 0 -50 0 0 50 0
50 50 0 50 0 0 -50z m-2100 -200 l0 -50 50 0 50 0 0 -100 0 -100 -100 0 -100
0 0 50 0 50 50 0 50 0 0 50 0 50 -50 0 -50 0 0 50 0 50 50 0 50 0 0 -50z
m2800 -100 l0 -50 -50 0 -50 0 0 -50 0 -50 -50 0 -50 0 0 50 0 50 50 0 50 0 0
50 0 50 50 0 50 0 0 -50z m-1800 -200 l0 -50 -50 0 -50 0 0 50 0 50 50 0 50 0
0 -50z m2300 -50 l0 -100 -50 0 -50 0 0 -100 0 -100 -50 0 -50 0 0 100 0 100
50 0 50 0 0 100 0 100 50 0 50 0 0 -100z m-2600 -100 l0 -100 50 0 50 0 0 -50
0 -50 50 0 50 0 0 -50 0 -50 -150 0 -150 0 0 -50 0 -50 -50 0 -50 0 0 -100 0
-100 50 0 50 0 0 -100 0 -100 50 0 50 0 0 50 0 50 50 0 50 0 0 50 0 50 -50 0
-50 0 0 100 0 100 100 0 100 0 0 -50 0 -50 50 0 50 0 0 -50 0 -50 -50 0 -50 0
0 -100 0 -100 -100 0 -100 0 0 -50 0 -50 100 0 100 0 0 -100 0 -100 -50 0 -50
0 0 50 0 50 -50 0 -50 0 0 -100 0 -100 -50 0 -50 0 0 100 0 100 50 0 50 0 0
50 0 50 -50 0 -50 0 0 50 0 50 -50 0 -50 0 0 100 0 100 -50 0 -50 0 0 -50 0
-50 -50 0 -50 0 0 50 0 50 50 0 50 0 0 50 0 50 -50 0 -50 0 0 50 0 50 -50 0
-50 0 0 50 0 50 -50 0 -50 0 0 50 0 50 -50 0 -50 0 0 100 0 100 50 0 50 0 0
-100 0 -100 50 0 50 0 0 50 0 50 50 0 50 0 0 50 0 50 100 0 100 0 0 50 0 50
100 0 100 0 0 -100z m1500 50 l0 -50 50 0 50 0 0 -50 0 -50 100 0 100 0 0 -50
0 -50 50 0 50 0 0 100 0 100 50 0 50 0 0 50 0 50 50 0 50 0 0 -50 0 -50 -50 0
-50 0 0 -100 0 -100 50 0 50 0 0 50 0 50 100 0 100 0 0 -100 0 -100 -50 0 -50
0 0 50 0 50 -50 0 -50 0 0 -50 0 -50 -50 0 -50 0 0 -50 0 -50 50 0 50 0 0 -50
0 -50 -50 0 -50 0 0 -50 0 -50 -50 0 -50 0 0 -50 0 -50 -50 0 -50 0 0 50 0 50
-100 0 -100 0 0 -50 0 -50 50 0 50 0 0 -50 0 -50 -50 0 -50 0 0 -50 0 -50 50
0 50 0 0 -100 0 -100 50 0 50 0 0 -50 0 -50 -100 0 -100 0 0 100 0 100 -50 0
-50 0 0 100 0 100 50 0 50 0 0 50 0 50 -50 0 -50 0 0 50 0 50 50 0 50 0 0 50
0 50 200 0 200 0 0 50 0 50 -100 0 -100 0 0 100 0 100 -50 0 -50 0 0 -50 0
-50 -100 0 -100 0 0 50 0 50 50 0 50 0 0 50 0 50 -50 0 -50 0 0 50 0 50 -50 0
-50 0 0 50 0 50 50 0 50 0 0 -50z m600 -800 l0 -50 -50 0 -50 0 0 -50 0 -50
-100 0 -100 0 0 50 0 50 100 0 100 0 0 50 0 50 50 0 50 0 0 -50z m-800 -100
l0 -50 50 0 50 0 0 -100 0 -100 -50 0 -50 0 0 50 0 50 -50 0 -50 0 0 -50 0
-50 -50 0 -50 0 0 50 0 50 50 0 50 0 0 100 0 100 50 0 50 0 0 -50z m-600 -100
l0 -50 -50 0 -50 0 0 50 0 50 50 0 50 0 0 -50z m1500 -200 l0 -150 -150 0
-150 0 0 150 0 150 150 0 150 0 0 -150z m400 0 l0 -50 -50 0 -50 0 0 -100 0
-100 50 0 50 0 0 -50 0 -50 -50 0 -50 0 0 50 0 50 -100 0 -100 0 0 -50 0 -50
-50 0 -50 0 0 50 0 50 50 0 50 0 0 50 0 50 50 0 50 0 0 50 0 50 50 0 50 0 0
50 0 50 50 0 50 0 0 -50z m-2400 -100 l0 -50 -50 0 -50 0 0 -100 0 -100 50 0
50 0 0 -50 0 -50 -100 0 -100 0 0 150 0 150 50 0 50 0 0 50 0 50 50 0 50 0 0
-50z m1600 -400 l0 -50 -50 0 -50 0 0 50 0 50 50 0 50 0 0 -50z"/>
<path d="M1300 3350 l0 -50 50 0 50 0 0 -50 0 -50 50 0 50 0 0 -50 0 -50 50 0
50 0 0 50 0 50 -50 0 -50 0 0 50 0 50 50 0 50 0 0 50 0 50 -50 0 -50 0 0 -50
0 -50 -50 0 -50 0 0 50 0 50 -50 0 -50 0 0 -50z"/>
<path d="M1100 2050 l0 -50 50 0 50 0 0 -50 0 -50 -50 0 -50 0 0 -50 0 -50
-100 0 -100 0 0 -50 0 -50 100 0 100 0 0 50 0 50 50 0 50 0 0 50 0 50 50 0 50
0 0 50 0 50 -50 0 -50 0 0 50 0 50 -50 0 -50 0 0 -50z"/>
<path d="M900 1950 l0 -50 50 0 50 0 0 50 0 50 -50 0 -50 0 0 -50z"/>
<path d="M1400 1550 l0 -50 50 0 50 0 0 50 0 50 -50 0 -50 0 0 -50z"/>
<path d="M3200 1850 l0 -50 50 0 50 0 0 50 0 50 -50 0 -50 0 0 -50z"/>
<path d="M3300 950 l0 -50 50 0 50 0 0 50 0 50 -50 0 -50 0 0 -50z"/>
<path d="M3300 3650 l0 -350 350 0 350 0 0 350 0 350 -350 0 -350 0 0 -350z
m600 0 l0 -250 -250 0 -250 0 0 250 0 250 250 0 250 0 0 -250z"/>
<path d="M3500 3650 l0 -150 150 0 150 0 0 150 0 150 -150 0 -150 0 0 -150z"/>
<path d="M3100 3750 l0 -150 50 0 50 0 0 150 0 150 -50 0 -50 0 0 -150z"/>
<path d="M2124 2529 c-29 -32 -69 -49 -119 -51 l-45 -2 0 -61 c0 -119 46 -213
137 -279 45 -33 49 -34 76 -20 97 51 155 147 164 275 l6 84 -46 2 c-50 2 -92
20 -121 52 -11 12 -22 21 -26 21 -4 0 -15 -9 -26 -21z m47 -25 c17 -21 61 -43
106 -52 l37 -8 -2 -54 c-5 -101 -43 -177 -112 -225 -49 -34 -76 -29 -129 24
-51 51 -78 113 -84 194 -4 57 -2 67 12 67 35 0 92 22 118 45 33 29 37 30 54 9z"/>
<path d="M2140 2492 c0 -17 -60 -52 -87 -52 -13 0 -23 -4 -23 -10 0 -17 53
-11 87 10 32 19 33 19 65 1 41 -24 80 -30 85 -13 3 7 -4 12 -17 12 -26 0 -57
15 -87 43 -13 11 -23 15 -23 9z"/>
<path d="M2005 2363 c10 -87 45 -152 98 -186 44 -28 45 -12 2 30 -43 42 -74
104 -75 150 0 38 -9 63 -22 63 -6 0 -7 -23 -3 -57z"/>
<path d="M2276 2404 c-3 -9 -6 -26 -6 -38 0 -45 -32 -114 -70 -151 -58 -57
-50 -79 10 -29 42 36 76 107 83 177 5 54 -4 76 -17 41z"/>
<path d="M1802 2063 c-33 -4 -33 -4 -30 -56 l3 -52 68 -3 c59 -3 67 -5 67 -22
0 -13 -7 -20 -20 -20 -11 0 -20 -4 -20 -10 0 -5 16 -10 35 -10 35 0 35 0 35
45 l0 45 -70 0 -70 0 0 30 c0 30 1 30 55 30 42 0 55 -3 55 -15 0 -10 -11 -15
-35 -15 -19 0 -35 -4 -35 -10 0 -5 23 -10 50 -10 l50 0 0 35 c0 30 -3 35 -24
35 -13 0 -36 2 -52 4 -16 2 -44 1 -62 -1z"/>
<path d="M1960 2056 c0 -8 10 -16 23 -18 23 -3 30 -29 10 -35 -7 -3 -13 2 -13
11 0 9 -4 16 -10 16 -5 0 -10 -11 -10 -25 0 -19 5 -25 21 -25 19 0 19 -1 5
-16 -9 -8 -16 -21 -16 -29 0 -7 -3 -20 -6 -29 -12 -31 16 -16 31 17 l15 32 -6
-32 c-4 -26 -2 -33 10 -33 12 0 16 11 16 48 1 37 3 43 11 30 6 -11 22 -18 39
-18 23 0 30 -5 30 -20 0 -11 -7 -20 -15 -20 -8 0 -15 -4 -15 -10 0 -5 11 -10
25 -10 24 0 24 1 24 85 0 58 -4 85 -12 86 -111 9 -157 8 -157 -5z m77 -48 c-3
-7 -5 -2 -5 12 0 14 2 19 5 13 2 -7 2 -19 0 -25z m53 2 c4 -3 2 -11 -6 -18
-12 -11 -14 -8 -13 20 0 18 3 26 6 18 3 -8 9 -17 13 -20z"/>
<path d="M2195 2063 c-36 -6 -50 -17 -40 -34 5 -6 10 -30 12 -52 2 -23 11 -46
21 -53 16 -12 15 -13 -5 -14 -13 0 -23 -4 -23 -8 0 -5 41 -9 90 -9 50 0 90 3
90 8 0 5 -12 9 -27 9 -25 1 -26 2 -10 14 9 7 17 22 17 33 0 10 5 24 10 29 20
20 -14 35 -56 26 -45 -10 -86 -2 -92 17 -4 11 10 13 72 9 60 -4 76 -2 76 9 0
7 -10 13 -24 13 -13 0 -36 2 -52 4 -16 2 -42 2 -59 -1z m95 -98 c0 -22 -46
-38 -71 -25 -36 20 -23 40 26 40 34 0 45 -4 45 -15z"/>
<path d="M2372 2058 c-7 -7 -12 -25 -12 -40 0 -25 3 -28 35 -28 24 0 35 -5 35
-15 0 -10 -11 -15 -35 -15 -19 0 -35 -4 -35 -10 0 -5 16 -10 35 -10 24 0 35
-5 35 -15 0 -10 -11 -15 -35 -15 -19 0 -35 -4 -35 -10 0 -6 37 -10 91 -10 57
0 88 4 84 10 -3 6 -22 10 -41 10 -24 0 -34 5 -34 15 0 10 11 15 35 15 19 0 35
5 35 10 0 6 -16 10 -35 10 -24 0 -35 5 -35 15 0 10 10 15 34 15 28 0 34 4 38
25 8 38 -19 55 -88 55 -33 0 -65 -5 -72 -12z m123 -28 c4 -6 -15 -10 -50 -10
-35 0 -54 4 -50 10 3 6 26 10 50 10 24 0 47 -4 50 -10z"/>
<path d="M1760 1930 c0 -6 30 -10 70 -10 40 0 70 4 70 10 0 6 -30 10 -70 10
-40 0 -70 -4 -70 -10z"/>
<path d="M2040 1930 c0 -5 14 -10 30 -10 17 0 30 5 30 10 0 6 -13 10 -30 10
-16 0 -30 -4 -30 -10z"/>
<path d="M1782 1858 c-16 -16 -15 -43 2 -58 18 -14 58 -10 64 8 3 11 0 11 -16
1 -27 -17 -54 -5 -50 23 2 19 9 23 35 22 18 -1 30 2 27 7 -8 13 -48 11 -62 -3z"/>
<path d="M1881 1828 c1 -24 3 -35 6 -25 6 22 31 22 55 0 10 -9 18 -11 18 -5 0
6 -5 14 -10 17 -8 5 -7 11 0 20 17 21 3 35 -36 35 -34 0 -34 -1 -33 -42z m59
23 c0 -12 -21 -19 -37 -13 -22 8 -14 22 12 22 14 0 25 -4 25 -9z"/>
<path d="M1996 1855 c-9 -9 -16 -20 -16 -25 0 -5 7 -16 16 -25 20 -20 63 -16
78 8 25 39 -43 76 -78 42z m64 -10 c10 -12 10 -18 0 -30 -27 -32 -71 -8 -56
30 3 8 14 15 24 15 11 0 25 -7 32 -15z"/>
<path d="M2101 1864 c-2 -18 20 -74 29 -74 4 0 11 11 14 25 4 14 11 25 16 25
5 0 12 -11 16 -25 3 -14 10 -25 14 -25 10 0 34 69 26 77 -3 3 -8 -6 -12 -21
-8 -33 -20 -33 -28 -1 -4 14 -11 25 -16 25 -5 0 -12 -11 -16 -25 -8 -32 -18
-32 -31 3 -6 15 -11 22 -12 16z"/>
<path d="M2250 1855 c-11 -13 -8 -17 19 -26 17 -6 31 -15 31 -20 0 -13 -34
-11 -48 3 -9 9 -12 9 -12 0 0 -14 44 -27 65 -18 24 9 17 27 -15 39 -36 14 -40
31 -5 25 13 -3 22 -1 19 3 -8 14 -40 10 -54 -6z"/>
<path d="M2350 1830 c0 -40 0 -40 38 -38 36 1 36 1 5 5 -40 5 -44 30 -5 36
l27 4 -27 2 c-39 2 -35 19 5 24 31 4 31 4 -5 5 -38 2 -38 2 -38 -38z"/>
<path d="M2456 1854 c-19 -18 -19 -20 -6 -45 14 -25 80 -24 80 2 0 5 -8 4 -19
-2 -26 -17 -53 -4 -49 23 2 19 9 23 37 21 24 -1 30 1 20 8 -21 13 -46 11 -63
-7z"/>
<path d="M800 1150 l0 -50 100 0 100 0 0 50 0 50 -100 0 -100 0 0 -50z"/>
<path d="M300 650 l0 -350 350 0 350 0 0 350 0 350 -350 0 -350 0 0 -350z
m600 0 l0 -250 -250 0 -250 0 0 250 0 250 250 0 250 0 0 -250z"/>
<path d="M500 650 l0 -150 150 0 150 0 0 150 0 150 -150 0 -150 0 0 -150z"/>
<path d="M1800 850 l0 -50 -50 0 -50 0 0 -50 0 -50 50 0 50 0 0 -50 0 -50 -50
0 -50 0 0 -150 0 -150 50 0 50 0 0 50 0 50 200 0 200 0 0 -50 0 -50 50 0 50 0
0 150 0 150 50 0 50 0 0 -50 0 -50 50 0 50 0 0 150 0 150 -50 0 -50 0 0 -50 0
-50 -100 0 -100 0 0 50 0 50 -150 0 -150 0 0 50 0 50 -50 0 -50 0 0 -50z m100
-100 l0 -50 100 0 100 0 0 -50 0 -50 50 0 50 0 0 -50 0 -50 -50 0 -50 0 0 50
0 50 -50 0 -50 0 0 -50 0 -50 -50 0 -50 0 0 100 0 100 -50 0 -50 0 0 50 0 50
50 0 50 0 0 -50z"/>
<path d="M2700 750 l0 -50 50 0 50 0 0 50 0 50 -50 0 -50 0 0 -50z"/>
<path d="M2500 350 l0 -50 50 0 50 0 0 50 0 50 -50 0 -50 0 0 -50z"/>
<path d="M3900 350 l0 -50 50 0 50 0 0 50 0 50 -50 0 -50 0 0 -50z"/>
</g>
</svg>
